<?xml version="1.0" standalone="no"?>
<!DOCTYPE svg PUBLIC "-//W3C//DTD SVG 20010904//EN"
 "http://www.w3.org/TR/2001/REC-SVG-20010904/DTD/svg10.dtd">
<svg version="1.0" xmlns="http://www.w3.org/2000/svg"
 width="256.000000pt" height="256.000000pt" viewBox="0 0 256.000000 256.000000"
 preserveAspectRatio="xMidYMid meet">

<g transform="translate(0.000000,256.000000) scale(0.100000,-0.100000)"
fill="rgb(30 41 59)" stroke="none">
<path d="M310 2545 c-6 -8 -10 -22 -8 -31 2 -10 101 -70 258 -154 140 -76 258
-144 262 -151 4 -8 32 -184 63 -392 31 -207 58 -384 61 -391 7 -18 32 -28 47
-19 7 4 120 83 251 176 132 94 245 170 250 170 6 0 91 -44 188 -97 121 -67
182 -95 192 -89 24 13 386 541 386 562 0 27 -32 44 -53 28 -8 -7 -92 -124
-187 -260 l-172 -248 -52 29 c-28 16 -177 98 -331 182 -154 84 -286 158 -292
164 -9 8 144 64 608 218 688 229 632 218 555 108 -18 -25 -35 -53 -39 -62 -8
-21 19 -50 41 -46 16 3 185 236 197 271 17 49 60 47 -1115 47 -947 0 -1099 -2
-1110 -15z m1680 -71 c-8 -2 -265 -46 -570 -98 l-555 -95 -185 99 -185 100
755 -1 c415 -1 748 -3 740 -5z m-483 -243 c-270 -90 -472 -163 -477 -172 -5
-8 -18 -84 -29 -168 -19 -136 -31 -195 -31 -150 0 8 -16 115 -34 239 -19 124
-33 227 -31 229 6 5 1016 179 1045 179 14 0 -186 -70 -443 -157z m-204 -367
c59 -32 107 -61 107 -65 0 -9 -371 -271 -377 -266 -4 5 42 373 53 425 l5 23
52 -29 c29 -16 100 -56 160 -88z"/>
<path d="M944 1350 c-29 -11 -37 -26 -29 -50 5 -15 15 -20 40 -20 39 0 67 23
58 48 -12 31 -31 38 -69 22z"/>
<path d="M795 1287 c-42 -24 -52 -52 -24 -70 21 -13 59 -3 87 23 26 25 27 33
6 54 -20 20 -21 20 -69 -7z"/>
<path d="M641 1184 c-36 -30 -40 -59 -11 -74 36 -19 107 41 95 79 -9 29 -46
27 -84 -5z"/>
<path d="M526 1057 c-30 -39 -33 -72 -10 -81 28 -11 49 2 71 42 39 68 -14 101
-61 39z"/>
<path d="M653 1050 c-43 -17 -22 -70 27 -70 48 0 69 49 31 70 -23 12 -28 12
-58 0z"/>
<path d="M797 1038 c-10 -5 -17 -20 -17 -33 0 -24 39 -45 86 -45 30 0 48 31
31 53 -16 21 -79 37 -100 25z"/>
<path d="M947 973 c-17 -16 -5 -53 24 -78 40 -33 73 -30 77 7 5 40 -76 97
-101 71z"/>
<path d="M360 957 c-30 -15 -45 -40 -37 -61 15 -40 106 0 93 41 -9 28 -28 34
-56 20z"/>
<path d="M453 928 c-8 -11 -33 -74 -33 -84 0 -6 32 -34 38 -34 31 1 67 82 51
112 -11 21 -42 24 -56 6z"/>
<path d="M221 846 c-24 -25 -31 -40 -27 -54 11 -33 34 -33 71 -1 37 33 46 72
19 83 -25 9 -28 8 -63 -28z"/>
<path d="M1045 820 c-8 -26 4 -87 21 -100 7 -7 22 -9 34 -5 16 5 20 15 20 46
0 22 -5 49 -10 60 -14 25 -57 25 -65 -1z"/>
<path d="M422 758 c-15 -15 -16 -72 -2 -99 13 -23 43 -25 60 -4 20 25 1 109
-25 113 -11 1 -26 -3 -33 -10z"/>
<path d="M145 742 c-19 -13 -45 -61 -45 -81 0 -11 9 -25 20 -31 17 -9 24 -6
45 16 31 34 41 69 25 89 -14 16 -29 19 -45 7z"/>
<path d="M1040 638 c-24 -39 -22 -76 3 -92 15 -9 22 -7 37 12 26 32 37 91 19
103 -25 15 -39 10 -59 -23z"/>
<path d="M462 588 c-17 -17 -15 -29 14 -71 27 -41 58 -47 77 -15 8 12 5 26
-16 57 -27 41 -53 51 -75 29z"/>
<path d="M61 576 c-7 -8 -13 -34 -14 -58 -2 -42 -1 -43 28 -43 26 0 32 5 43
39 7 21 10 47 7 57 -7 23 -47 25 -64 5z"/>
<path d="M933 491 c-37 -34 -40 -43 -17 -65 20 -21 21 -21 66 11 31 21 38 32
36 52 -4 39 -44 40 -85 2z"/>
<path d="M588 469 c-28 -16 -21 -47 15 -69 38 -24 70 -26 87 -5 18 22 6 41
-39 65 -46 23 -41 22 -63 9z"/>
<path d="M758 429 c-22 -12 -23 -42 -3 -59 20 -17 94 -2 108 22 24 38 -56 66
-105 37z"/>
<path d="M30 411 c-14 -27 -13 -84 2 -99 32 -32 68 -1 68 60 0 55 -47 81 -70
39z"/>
<path d="M40 241 c-12 -24 7 -89 32 -104 29 -19 51 10 44 57 -4 22 -12 46 -18
53 -16 19 -46 16 -58 -6z"/>
<path d="M97 93 c-13 -12 -7 -51 11 -73 23 -29 62 -20 62 13 0 45 -49 85 -73
60z"/>
</g>
</svg>
